<svg width="32" height="32" viewBox="0 0 32 32" fill="none" xmlns="http://www.w3.org/2000/svg">
  <!-- CS2 tactical gloves: segmented fingers + cuff (not winter mittens) -->
  <g fill="#FFFFFF">
    <!-- Left glove -->
    <path d="M2.8 16.8c-.95.7-1.4 1.9-1.15 3.05.35 1.55 1.75 2.55 3.35 2.55h1.1v-3.1c0-1.15-.55-2.15-1.4-2.75-.55-.4-1.25-.3-1.9.25z"/>
    <rect x="5.1" y="5.8" width="1.7" height="5.4" rx="0.85"/>
    <rect x="7.2" y="4.9" width="1.75" height="6.3" rx="0.85"/>
    <rect x="9.35" y="5.2" width="1.7" height="6" rx="0.85"/>
    <rect x="11.45" y="6.1" width="1.6" height="5.1" rx="0.8"/>
    <path d="M5 11.6c0-.55.45-1 1-1h6.2c.55 0 1 .45 1 1v8.35c0 1.2-.95 2.15-2.15 2.15H7.15C5.95 22.1 5 21.15 5 19.95V11.6z"/>
    <rect x="5.35" y="22" width="7.5" height="3.6" rx="1.1"/>

    <!-- Right glove -->
    <path d="M15.6 15.1c-.9.65-1.35 1.75-1.1 2.85.35 1.45 1.65 2.4 3.15 2.4h1.05v-2.9c0-1.1-.5-2-1.3-2.55-.55-.4-1.2-.3-1.8.2z"/>
    <rect x="18.1" y="4.2" width="1.7" height="5.5" rx="0.85"/>
    <rect x="20.2" y="3.3" width="1.75" height="6.4" rx="0.85"/>
    <rect x="22.35" y="3.6" width="1.7" height="6.1" rx="0.85"/>
    <rect x="24.45" y="4.5" width="1.6" height="5.2" rx="0.8"/>
    <path d="M18 10c0-.55.45-1 1-1h6.35c.55 0 1 .45 1 1v8.7c0 1.15-.95 2.1-2.1 2.1h-4.15c-1.15 0-2.1-.95-2.1-2.1V10z"/>
    <rect x="18.35" y="20.6" width="7.65" height="3.7" rx="1.1"/>
  </g>
</svg>
